<svg xmlns="http://www.w3.org/2000/svg" width="1602.714" height="741.713"><path d="M103.036 1028.27c-6-2.246-7.677-4.444-6.252-8.192.66-1.737 1.928-3.158 2.818-3.158.89 0 4.784 2.047 8.655 4.549 3.87 2.502 8.603 5.117 10.517 5.812l3.48 1.264-4.28.093c-2.356.05-5.81.314-7.678.585-1.867.271-5.134-.158-7.26-.954zm-13.617-11.525c-1.13-.632-3.013-.845-4.185-.473-1.476.468-2.616-.23-3.709-2.27-.867-1.622-2.422-3.238-3.454-3.594-2.37-.815-7.337-8.862-10.102-16.365-1.396-3.79-3.274-6.41-5.503-7.677-3.956-2.25-4.239-3.27-1.177-4.243 3.502-1.111 4.154-7.286 1.206-11.427-1.407-1.976-2.148-4.297-1.724-5.401.5-1.304-.88-3.592-4.224-6.999-4.22-4.3-5-5.863-5.19-10.394-.122-2.934-.836-6.073-1.587-6.978-.945-1.14-1.138-5.23-.628-13.315.554-8.763.231-14.171-1.293-21.71-2.265-11.194-3.421-32.051-2.833-51.08.126-4.06-.4-9.635-1.17-12.387-1.871-6.703-10.484-15.165-21.128-20.758-7.613-4-8.683-5.026-11.66-11.171-1.802-3.721-5.246-9.283-7.654-12.36-2.407-3.076-5.025-7.593-5.817-10.038-2.512-7.761-6.942-15.56-9.962-17.538-1.607-1.053-3.44-3.791-4.073-6.084-1.024-3.711-.754-4.747 2.453-9.409 3.478-5.054 3.519-5.26 1.169-5.875-5.775-1.51-3.347-9.229 7.019-22.309 6.89-8.693 8.907-15.316 6.999-22.967-.727-2.916-1.379-5.966-1.447-6.778-.069-.812-.587-1.476-1.15-1.476-.565 0-.457-1.065.24-2.367 1.074-2.007.803-2.58-1.777-3.755-3.76-1.713-9.439-.02-9.46 2.822-.027 3.408-1.526 3.66-6.467 1.084-2.646-1.38-5.395-2.508-6.108-2.508-.714 0-3.488-1.887-6.165-4.193-2.677-2.307-5.531-4.72-6.343-5.362-.812-.642-1.477-2.394-1.477-3.891 0-1.498-1.043-3.667-2.317-4.82-1.275-1.154-2.927-3.943-3.671-6.198-.978-2.963-1.71-3.742-2.643-2.81-1.946 1.946-4.827 1.576-11.819-1.516-3.655-1.616-7.464-4.377-8.985-6.514-1.452-2.039-4.226-4.528-6.165-5.53-3.2-1.655-4-1.642-8.66.138l-5.135 1.96-15.754-7.633c-9.69-4.696-17.212-9.176-19.541-11.64-3.612-3.819-3.729-4.234-2.527-8.968 1.1-4.338.914-5.68-1.48-10.627-1.508-3.114-4.802-7.897-7.32-10.63-2.518-2.731-4.292-5.429-3.942-5.995.35-.565-1.425-4.377-3.942-8.471-2.86-4.65-4.878-9.632-5.38-13.278-.643-4.673-1.391-6.103-3.762-7.183-2.514-1.145-3.216-1-4.655.966-2.027 2.77-1.451 5.692 3.03 15.376 1.821 3.936 3.703 9.77 4.182 12.964.48 3.195 1.895 7.815 3.145 10.266 2.962 5.806 1.05 5.704-3.621-.194-2.755-3.478-3.5-5.386-2.952-7.567.585-2.33.01-3.45-2.854-5.568-4.342-3.21-5.262-5.282-3.666-8.263.93-1.738.503-3.644-1.86-8.306-2.398-4.734-2.9-7.027-2.306-10.543.971-5.747-1.607-10.949-6.414-12.94-2.775-1.15-3.732-2.435-4.298-5.776-.4-2.364-1.166-6.021-1.702-8.127-.558-2.19-.518-4.112.095-4.49.588-.364.203-1.985-.856-3.602-1.56-2.38-1.667-3.507-.563-5.932.75-1.646 1.033-3.527.63-4.181-.405-.654.602-2.607 2.237-4.34 1.634-1.734 3.81-5.192 4.835-7.684 1.026-2.492 4.185-7.112 7.02-10.266 2.837-3.155 6.432-8.68 7.99-12.28 2.164-4.995 3.432-6.548 5.36-6.563 1.39-.01 2.453.644 2.362 1.456-.376 3.384 2.3 2.341 5.305-2.067 1.771-2.598 2.727-4.901 2.124-5.118-.603-.216-1.097-1.194-1.097-2.172 0-.978-2.445-4.155-5.433-7.06-4.957-4.816-5.275-5.455-3.627-7.276 1.335-1.476 1.492-2.558.602-4.15-1.565-2.796.904-9.058 3.582-9.083 1.106-.011 1.421-.387.742-.886-1.523-1.12-2.213-3.661-2-7.364.343-5.914-.951-8.388-5.348-10.225-2.372-.99-5.99-3.081-8.042-4.646-2.051-1.565-4.654-2.845-5.784-2.845s-6.264-1.075-11.41-2.389c-8.274-2.112-9.732-2.196-12.598-.72-5.94 3.056-12.233 4.302-14.798 2.93-1.924-1.03-4.024-.395-11.347 3.436-4.942 2.585-10.846 5.101-13.12 5.591-2.273.49-6.624 2.147-9.668 3.68-8.636 4.352-21.006 8.738-24.428 8.662-2.208-.049-.715-1.017 5.16-3.347 9.986-3.96 20.246-9.117 21.195-10.652 1.17-1.892-1.368-2.57-4.416-1.182-2.244 1.023-3.627.927-6.217-.43l-3.33-1.745 3.623-1.873c4.095-2.118 5.384-4.514 4.443-8.263-.912-3.63 4.113-6.299 14.937-7.931 5.816-.877 10.238-2.337 13.215-4.364 5.249-3.573 4.347-6.274-1.313-3.93-2.679 1.11-4.63 1.122-8.598.054-4.822-1.299-4.994-1.484-2.837-3.061 3.609-2.639 11.073-4.226 15.977-3.398 3.103.525 5.645.157 8.254-1.192l3.77-1.949-2.482-2.641c-1.365-1.453-2.482-2.954-2.482-3.336 0-1.096 7.11-3.287 10.666-3.287 1.774 0 6.639-1.285 10.81-2.855 4.17-1.57 13.794-3.713 21.385-4.763 12.312-1.703 14.919-1.723 24.15-.193 5.692.944 13.538 2.07 17.436 2.502 3.897.432 10.796 1.803 15.33 3.047 10.53 2.889 17.39 2.854 29.154-.15 5.194-1.326 10.445-2.094 11.667-1.706 1.223.388 3.301.128 4.619-.577 1.816-.972 3.224-.854 5.815.485 2.34 1.21 5.23 1.556 9.163 1.096 4.15-.485 7.785.017 13.09 1.811 4.04 1.366 8.526 2.484 9.97 2.484 2.557 0 2.566.043.332 1.687-2.19 1.612-2.196 1.724-.14 2.521 1.184.46 5.294.506 9.134.105 6.934-.725 6.994-.704 8.927 3.034l1.947 3.765 2.526-3.17c1.452-1.82 4.903-3.883 8.113-4.849 4.851-1.46 6.323-1.455 11.196.037 3.44 1.053 7.556 1.437 10.639.992 3.925-.567 5.748-.214 8.31 1.61 3.233 2.302 3.323 2.303 6.191.08 1.6-1.24 4.894-2.807 7.32-3.483 5.804-1.618 7.773-5.064 4.287-7.506-2.465-1.727-2.358-1.859 4.123-5.037 4.833-2.37 7.01-2.909 7.952-1.967.942.942.932 1.979-.035 3.786-1.65 3.081.403 7.739 2.975 6.752.925-.355 2.458-.347 3.408.017 1.493.573 1.469 1.059-.175 3.567-4.541 6.93 5.64 4.967 12.532-2.417 2.802-3.002 7.143-3.912 11.213-2.35 2.628 1.008 2.381 1.833-1.97 6.605-5.187 5.687-7.841 6.85-15.63 6.85-3.766 0-8.21.816-10.281 1.887-2.867 1.482-4.265 1.606-6.526.575-4.216-1.92-5.683-.322-2.66 2.897l2.582 2.748-5.15 1.461c-2.832.804-7.541 1.54-10.464 1.634-4.24.138-5.317.598-5.323 2.274-.006 1.434-2.068 2.943-6.496 4.753-14.348 5.865-26.519 16.44-22.112 19.212.825.52 2.136 2.391 2.912 4.16.894 2.036 2.617 3.456 4.7 3.873 1.808.362 6.477 2.229 10.374 4.148 3.898 1.92 8.681 3.837 10.63 4.262 5.365 1.17 5.412 1.292 2.913 7.632-2.138 5.423-2.18 6.197-.524 9.4.993 1.92 2.456 3.473 3.251 3.45 3.87-.112 7.499-3.684 9.754-9.6 2.149-5.639 3.128-6.69 9.296-9.985 9.103-4.862 12.889-9.651 11.88-15.028-.657-3.503-.316-4.325 2.682-6.46 1.89-1.345 4.391-4.565 5.559-7.155 2.61-5.789 6.806-7.796 13.88-6.64 6.273 1.026 13.692 5.01 14.588 7.833.368 1.159.062 3.24-.679 4.625-1.123 2.098-.91 2.984 1.27 5.305l2.618 2.786 4.274-2.216c2.351-1.218 6.12-3.596 8.374-5.283l4.1-3.067.962 2.603c.53 1.432.68 3.341.334 4.243-.345.901-.076 2.67.598 3.931.76 1.418.818 3.022.155 4.208-.748 1.336-.248 3.366 1.653 6.712 2.723 4.794 2.723 4.798.332 6.473-3.147 2.204-1.128 4.542 2.326 2.693 3.43-1.835 7.357-1.597 9.778.595 3.58 3.24.603 7.115-8.898 11.585-10.335 4.862-14.941 5.826-28.43 5.945-9.962.088-11.28.406-20.965 5.048-5.684 2.725-10.334 5.422-10.334 5.993 0 2.437 1.79 2.225 8.662-1.026 4.049-1.915 9.267-3.445 11.753-3.446 4.245 0 4.4.13 3.074 2.608-.767 1.435-2.424 3.441-3.68 4.458-1.975 1.6-2.091 2.275-.855 4.989 1.855 4.07 6.698 6.028 12.49 5.051l4.579-.772-3.52 2.428c-1.937 1.336-5.126 2.775-7.087 3.199-1.962.423-5.993 1.992-8.958 3.486-3.01 1.517-6.035 2.32-6.847 1.817-1.87-1.155.104-2.888 6.176-5.425 5.401-2.257 4.538-4.654-1.283-3.562-2.267.425-9.619 3.194-16.337 6.153-10.486 4.62-12.315 5.839-12.926 8.619-.75 3.416-3.31 5.032-12.312 7.77-2.87.874-6.591 2.985-8.267 4.692-1.676 1.707-4.885 4.262-7.13 5.678-2.247 1.417-4.397 3.899-4.78 5.515-.63 2.664-.776 2.728-1.564.675-1.478-3.846-3.705-.086-3.833 6.472-.132 6.718-3.537 11.301-11.007 14.81-7.658 3.599-18.554 12.101-20.762 16.201-1.95 3.62-2.031 5.03-.83 14.333 1.12 8.68 1.053 10.857-.421 13.708-1.101 2.13-2.386 3.147-3.455 2.737-2.534-.973-5.634-11.401-4.765-16.032.603-3.216.204-4.435-2.193-6.687-1.932-1.815-3.715-2.505-5.23-2.024-1.266.402-4.843-.36-7.954-1.693-4.767-2.043-6.288-2.215-9.69-1.091-2.308.761-4.6 2.567-5.35 4.214-1.118 2.451-1.857 2.766-4.941 2.103-1.995-.43-5.063-1.514-6.817-2.41-4.32-2.207-6.74-2.053-11.593.737-2.263 1.301-6.882 3.792-10.264 5.535-3.886 2.003-6.556 4.283-7.256 6.197-.609 1.665-2.787 8.155-4.84 14.423l-3.731 11.396 1.906 7.357c3.502 13.515 8.375 17.56 18.527 15.384 7.654-1.642 12.25-4.968 13.94-10.087 1.073-3.252 2.23-4.326 5.695-5.289 5.214-1.448 7.392-1.501 9.395-.23 1.653 1.049 1.072 2.774-6.328 18.796-5.078 10.993-4.712 11.976 3.987 10.721 7.925-1.143 15.17-.266 16.016 1.94.33.86-.207 6.66-1.193 12.891-1.763 11.146-1.75 11.395.788 15.503 1.42 2.296 4.08 4.95 5.913 5.898 2.925 1.513 3.843 1.51 7.525-.029 5.85-2.444 9.026-2.186 13.089 1.065 3.248 2.6 3.708 2.673 6.26 1 1.516-.993 3.583-3.454 4.595-5.468 2.28-4.543 6.122-7.736 9.35-7.771 1.348-.014 3.7-1.355 5.225-2.979 3.099-3.298 8.554-4.372 5.888-1.16-2.238 2.697-3.518 11.37-2.075 14.065 1.2 2.243 1.297 2.23 3.483-.468 1.555-1.922 1.87-3.154 1.019-4.004-2.029-2.029-1.418-3.715 2.357-6.505 3.919-2.898 6.95-2.6 10.332 1.013 2.48 2.65 15.72 6.231 19.513 5.279 5.779-1.45 21.391 8.042 27.258 16.573 2.793 4.061 11.716 8.149 15.64 7.164 8.071-2.026 19.137 6.061 21.725 15.876.77 2.924 1.932 5.646 2.582 6.05 1.723 1.074-.858 5.316-6.5 10.684-3.606 3.43-4.466 4.906-3.452 5.92 1.014 1.014 2.681.125 6.684-3.565 5.822-5.366 7.765-5.911 10.682-2.994 1.774 1.774 1.72 2.135-.712 4.724-1.449 1.542-3.471 2.837-4.495 2.878-1.078.043-.642.561 1.037 1.232 2.308.921 3.511.662 5.906-1.273 6.235-5.038 7.702-5.28 13.241-2.186 3.601 2.012 5.043 3.544 4.862 5.164-.505 4.504.557 5.5 3.68 3.455 2.481-1.626 4.184-1.703 12.487-.567 8.833 1.21 9.99 1.692 14.227 5.93 3.146 3.145 6.685 5.214 11.13 6.507 5.969 1.735 6.617 2.264 7.7 6.284 1.57 5.829-.27 12.297-5.243 18.44-2.125 2.625-4.729 6.478-5.787 8.562-1.058 2.085-3.309 5.175-5 6.867-2.865 2.865-3.025 3.581-2.31 10.383 1.394 13.288-5.105 38.078-11.374 43.38-2.042 1.726-3.788 2.132-7.025 1.63-2.66-.412-4.63-.146-5.15.695-.463.75-3.042 2.33-5.73 3.512-2.69 1.183-6.694 3.69-8.898 5.573-3.815 3.259-3.943 3.62-2.659 7.51 1.48 4.485.484 9.795-2.689 14.324-1.025 1.464-1.864 3.956-1.864 5.536 0 1.58-1.233 4.518-2.739 6.529-1.506 2.01-4.411 6.61-6.456 10.225-5.03 8.89-8.056 10.43-15.35 7.816-6.33-2.269-9.707-2.54-9.707-.78 0 .664 1.262 1.782 2.805 2.485 1.542.703 3.946 3.563 5.34 6.357 2.079 4.16 2.298 5.605 1.215 7.982-1.677 3.682-8.092 6.773-14.054 6.773-5.281 0-6.591 1.292-4.767 4.7 1.126 2.104.368 5.488-1.809 8.084-.176.21-2.026-.5-4.11-1.577-4.974-2.573-6.735-.934-4.22 3.927 1.022 1.978 2.966 3.947 4.32 4.377 2.327.738 2.352.902.46 2.992-1.102 1.218-1.673 3.065-1.272 4.112.432 1.124-.53 3.552-2.357 5.946-2.968 3.892-3.01 4.161-1.107 7.065 1.088 1.66 2.785 3.33 3.771 3.708 3.557 1.364 4.147 6.028 1.435 11.344-2.717 5.326-3.134 10.666-1.031 13.2 1.912 2.304-4.522 6.792-7.415 5.173zM2.376 505.21c3.155-6.594 9.028-11.505 13.757-11.505 3.404 0 3.444.552.327 4.514l-2.45 3.116 2.514 2.036c2.026 1.64 3.071 1.782 5.38.73 1.577-.719 3.193-2.334 3.591-3.59.543-1.708 1.424-2.107 3.504-1.585 1.925.483 3.13.07 3.922-1.346 2.4-4.288-3.707-9.772-8.203-7.366-3.217 1.722-7.42-1.704-6.523-5.316.333-1.339-.351-3.669-1.536-5.232-2.44-3.222-6.155-3.561-14.283-1.305-2.923.812-6.257 1.44-7.407 1.395-1.151-.045-1.784.418-1.407 1.028.377.61.256 1.122-.27 1.136-.525.015-2.278 1.043-3.894 2.284l-2.94 2.259 3.301 1.254c2.58.981 4.101.841 6.967-.64 3.368-1.742 3.992-1.741 7.668.012 2.214 1.055 5.237 1.598 6.768 1.213 1.522-.382 3.093-.167 3.491.478.407.659-1.256 1.507-3.8 1.936-6.912 1.168-10.503 4.047-15.516 12.437-4.188 7.009-4.428 7.854-2.759 9.707 1.638 1.817 2.09 1.846 4.337.275 1.38-.965 3.837-4.531 5.46-7.925zm21.458 7.29c4.204-2.145 4.609-2.683 3.127-4.165-1.482-1.482-2.418-1.385-7.238.747-5.66 2.504-7.456 5.882-3.127 5.882 1.325 0 4.582-1.109 7.238-2.464zm20.941-8.924c2.46-1.723 2.552-2.061.817-3.032-2.554-1.43-10.146 1.033-10.146 3.291 0 2.327 5.87 2.164 9.33-.259zm88.7 510.036c0-.52.637-1.582 1.417-2.362s.971-1.417.425-1.417c-.545 0-1.629.872-2.408 1.937-1.118 1.53-1.89 1.66-3.673.626-1.274-.74-1.584-1.326-.711-1.346.85-.02 1.217-.568.816-1.217-.771-1.248 1.256-1.588 7.086-1.19 5.204.356 5.728 1.116 2.511 3.646-2.996 2.357-5.463 2.955-5.463 1.323zm986.35-29.641c-3.379-2.141 3.658-6.868 21.104-14.178 4.872-2.04 12.295-6.31 16.497-9.486 7.145-5.4 7.737-5.635 9.153-3.613 2.15 3.068.883 5.29-4.367 7.657-2.508 1.13-5.662 3.323-7.009 4.872-1.346 1.549-3.513 2.816-4.814 2.816-1.302 0-4.361 1.79-6.8 3.977-8.344 7.489-18.914 11.027-23.764 7.955zm-82.657-15.343c-1.227-.778-1.296-1.579-.295-3.448.716-1.339 1.303-4.1 1.303-6.135 0-3.327.268-3.606 2.657-2.766 1.462.514 4.518 1.004 6.791 1.09 2.274.084 4.545.231 5.047.325 1.958.368-3.275 6.323-7.976 9.078-5.598 3.281-5.367 3.224-7.527 1.856zm136.477-10.328c-.41-.411.562-1.778 2.162-3.036 2.41-1.896 2.692-2.697 1.638-4.666-1.525-2.85.74-5.906 5.985-8.079 4.063-1.683 5.087-5.099 3.997-13.342-.75-5.67-.658-6.024 1.17-4.513 1.434 1.187 1.787 2.682 1.276 5.408-.561 2.989-.057 4.542 2.435 7.504 2.693 3.2 3.493 3.547 5.588 2.426 2.088-1.117 2.332-1.015 1.675.697-.423 1.104-.77 2.215-.77 2.47 0 .255-1.727 1.348-3.838 2.429-2.111 1.08-6.23 3.94-9.154 6.353-4.753 3.925-9.645 7.096-10.945 7.096-.26 0-.808-.336-1.219-.747zm-124.893-15.255c-2.487-2.647-2.947-2.749-5.337-1.183-3.045 1.995-8.766.83-13.352-2.721-2.446-1.894-2.616-2.504-1.355-4.862 1.077-2.011 1.112-3.421.14-5.554-.716-1.573-1.302-3.897-1.302-5.166 0-2.861-1.858-2.998-3.396-.25-.633 1.132-1.49 1.72-1.903 1.306-.414-.414.954-2.696 3.04-5.07 5.132-5.846 3.129-7.433-3.65-2.893-2.921 1.957-5.5 4.094-5.732 4.75-.23.656-1.635-1.369-3.12-4.498-1.609-3.394-4.389-6.804-6.887-8.45-3.753-2.472-5.025-2.676-12.234-1.958-10.573 1.052-20.773 3.659-27.45 7.015-3.034 1.526-8.956 3.087-13.523 3.567-4.469.468-11.576 2.15-15.794 3.738-6.45 2.428-8.285 2.683-11.553 1.605-4.384-1.447-6.205-4.43-3.369-5.517 1.027-.394 2.89-3.105 4.141-6.023 2.003-4.672 2.114-6.127.926-12.163-.982-4.994-1.01-9.723-.1-17.411.686-5.806.949-11.698.583-13.095-.365-1.397.206-4.817 1.269-7.6 1.874-4.907 2.328-5.228 14.998-10.595 7.187-3.044 14.543-5.534 16.347-5.534 4.882 0 10.927-4.645 14.26-10.956 2.059-3.901 3.487-5.385 4.723-4.908 3.45 1.334 4.131 1.072 3.865-1.486-.17-1.645.536-2.841 1.942-3.288 1.216-.386 3.463-2.536 4.993-4.779 1.567-2.296 4.788-4.882 7.373-5.92 4.311-1.731 4.74-1.705 7.086.427 4.327 3.933 7.394 5.081 8.858 3.317.712-.859.957-1.898.544-2.311-1.352-1.352 4.834-9.114 7.858-9.86 1.624-.4 4.958-1.732 7.41-2.96 3.822-1.915 5.166-2.042 9.448-.893 9.233 2.48 9.54 2.885 6.105 8.075-4.417 6.674-3.245 9.284 7.588 16.91 5.002 3.52 9.724 6.191 10.494 5.935.769-.257 3.202-2.953 5.405-5.99 3.004-4.141 4.168-7.152 4.65-12.021.684-6.916 3.992-16.535 5.687-16.535.56 0 1.846 2.844 2.857 6.321 1.01 3.477 3.128 7.534 4.706 9.016 3.688 3.464 5.83 13.15 4.174 18.874-1.097 3.792-.886 4.4 2.875 8.267 2.232 2.296 5.762 7.895 7.845 12.442 2.083 4.547 5.838 10.98 8.345 14.297l4.558 6.03-1.296 9.316c-.94 6.759-2.395 11.264-5.3 16.41-4.452 7.885-11.108 15.408-14.616 16.521-1.262.4-4.185 3.36-6.495 6.576-2.311 3.216-4.722 5.848-5.357 5.848-.636 0-3.337 2.76-6.004 6.134-4.447 5.626-5.266 6.141-9.9 6.228-3.556.067-6.279 1.031-9.199 3.259l-4.148 3.163-2.721-2.897zm-575.913-24.832c-2.502-2.501-2.92-3.78-2.36-7.225.526-3.242.024-5.149-2.222-8.455-1.596-2.348-2.901-4.847-2.901-5.553 0-.707-2.089-4.084-4.641-7.505-3.946-5.288-4.756-7.4-5.407-14.09-1.148-11.806-4.917-24.583-9.984-33.844-2.49-4.553-4.883-10.465-5.316-13.137-.923-5.686 1.386-14.149 6.657-24.402l3.507-6.821-1.97-5.933c-1.103-3.319-1.641-7.246-1.223-8.913.49-1.952-.036-4.277-1.525-6.734-1.25-2.065-3.106-6.677-4.125-10.25-1.361-4.772-3.258-7.875-7.15-11.693-7.485-7.344-8.458-10.235-6.135-18.226 4.729-16.268-.38-25.756-12.861-23.885-4.86.729-5.046.638-5.732-2.795-.527-2.634-1.955-4.184-5.54-6.012-4.658-2.377-6.652-2.386-12.372-.056-1.3.529-6.614 2.363-11.81 4.075-7.815 2.574-10.161 2.906-13.562 1.92-3.223-.935-5.937-.693-12.53 1.116-6.814 1.87-9.284 2.07-12.966 1.054-7.682-2.121-20.88-14.017-22.757-20.512-1.453-5.026-10.488-16.74-13.562-17.584-1.955-.536-2.195-.951-.998-1.724 1.203-.776.994-1.17-.886-1.66-2.985-.781-3.282-3.22-.395-3.246 1.766-.015 1.809-.184.295-1.163-1.116-.721-1.24-1.151-.335-1.163.938-.012.58-1.468-1.029-4.196-2.265-3.84-2.312-4.347-.582-6.26 5.284-5.838 6.442-18.41 2.425-26.33-1.917-3.781-.684-9.004 3.408-14.435 1.54-2.044 4.549-7.019 6.685-11.054 3.736-7.06 12.064-16.875 14.318-16.875 2.494 0 10.542-8.652 10.542-11.334 0-6.054 3.62-12.09 9.521-15.877 3.171-2.035 6.887-5.514 8.258-7.732 2.803-4.536 3.2-4.684 6.466-2.409 1.28.893 4.465 1.982 7.075 2.42 3.98.668 5.884.187 11.81-2.982 10.198-5.454 16.5-6.817 28.17-6.089 7.695.48 11.16.174 14.89-1.32 5.494-2.197 10.243-.896 8.958 2.454-.387 1.007-.15 2.496.524 3.31.85 1.022.842 2.488-.022 4.76-1.085 2.856-.844 3.705 1.845 6.512 1.701 1.776 4.747 3.56 6.769 3.964 9.492 1.898 12.19 3.128 14.15 6.446 1.437 2.43 3.32 3.679 6.431 4.262 2.42.454 5.935 1.62 7.81 2.589 3.184 1.647 3.597 1.587 6.253-.908 1.785-1.677 2.594-3.453 2.176-4.772-.367-1.156-.088-3.185.62-4.508 1.828-3.415 7.016-3.08 15.117.976 8.826 4.418 25.562 7.57 31.496 5.932 2.854-.788 5.597-.798 8.096-.03 8.16 2.508 12.34.545 13.454-6.32.37-2.28 1.002-4.146 1.404-4.146.764 0 1.163-3.429 1.274-10.925.036-2.436.611-4.43 1.28-4.43.795 0 .755-.855-.114-2.48-1.453-2.714-4.398-2.652-11.448.24-3.343 1.373-4.274 1.314-7.269-.455-3.883-2.294-7.869-2.638-9.018-.778-.854 1.382-6.893.413-10.169-1.632-2.353-1.47-4.552-5.844-4.552-9.056 0-1.232-1.195-3.082-2.657-4.111-2.262-1.594-2.394-2.045-.886-3.032.975-.637 2.979-.875 4.454-.528 1.882.443 3.612-.298 5.796-2.483 2.056-2.056 4.556-3.19 7.357-3.339 2.334-.124 5.714-1.194 7.512-2.38 3.903-2.57 12.763-1.856 19.638 1.585 9.27 4.64 17.504 4.367 20.818-.69 1.724-2.631 1.733-3.184.097-5.681-.997-1.521-5.785-5.026-10.64-7.789l-8.83-5.023 1.655-3.199c.91-1.759 1.356-3.496.992-3.86-.364-.364-.224-1.361.31-2.216.533-.856 1.074-2.242 1.201-3.08.272-1.79-1.633-1.295-11.026 2.858-5.452 2.412-6.262 3.15-5.053 4.608.792.955 2.571 1.76 3.953 1.788 1.939.04 1.48.597-2.008 2.437-4.235 2.235-4.707 2.264-7.46.46-2.355-1.543-2.663-2.26-1.547-3.605 1.107-1.334.942-1.848-.807-2.505-1.21-.455-2.77-1.586-3.466-2.515-3.384-4.509-14.116 7.353-17.238 19.05-1.465 5.491-1.416 5.777 1.342 7.857l2.862 2.16-5.25 1.082c-2.89.596-6.782.666-8.651.155-3.45-.942-7.821.478-7.821 2.54 0 .607-.804.795-1.787.418-.983-.377-2.543-.058-3.467.708-1.433 1.19-1.27 2.164 1.104 6.631 2.573 4.84 2.653 5.501 1.048 8.718-2.011 4.031-3.881 3.731-6.722-1.077-1.98-3.353-1.967-3.43.653-3.802 3.307-.47 3.52-2.574.312-3.087-7.317-1.17-11.22-5.026-11.22-11.086 0-4.73-4.384-9.943-9.7-11.535-2.762-.828-5.765-2.566-6.674-3.862-.908-1.297-3.565-3.158-5.906-4.135-2.34-.978-4.96-2.784-5.82-4.014-1.237-1.764-2.049-1.976-3.859-1.008-1.26.675-2.292 1.987-2.292 2.916 0 3.067 15.054 16.94 22.413 20.654 7.802 3.938 9.02 5.345 3.6 4.154-4.833-1.061-6.15.001-4.497 3.63 1.162 2.548.972 3.323-1.364 5.567l-2.714 2.608.618-3.519c.98-5.585-6.384-13.607-12.49-13.607-2.238 0-10.838-8.342-13.091-12.699-2.407-4.655-5.086-5.554-8.88-2.981-5.717 3.876-10.003 5.186-14.487 4.429-5.957-1.007-9.704 1.07-8.755 4.852.496 1.975.22 2.856-.894 2.856-.885 0-3.154 1.328-5.042 2.951-1.887 1.623-3.838 2.952-4.334 2.953-1.462.002-5.584 7.464-5.589 10.115-.005 2.535-4.623 7.53-9.08 9.82-1.419.729-4.722 1.325-7.34 1.325-3.602 0-5.078.594-6.066 2.44-1.294 2.418-1.334 2.413-4.36-.614-2.84-2.84-4.475-3.55-10.206-4.437-3.01-.466-3.52-7.282-1.267-16.992.962-4.151 1.435-8.803 1.05-10.337-1.12-4.46 2.384-7.089 8.245-6.189 13.533 2.08 21.449 2.194 23.304.339 2.55-2.55 3.7-10.958 2.144-15.673-1.015-3.075-2.41-4.332-6.575-5.922-6.125-2.34-6.254-4.602-.266-4.662 2.281-.023 5.573-.976 7.314-2.116 1.741-1.141 3.666-1.765 4.279-1.387 1.67 1.032 7.991-2.612 10.091-5.817 1.015-1.548 3.013-3.113 4.44-3.477 1.428-.364 5.253-3.137 8.5-6.162 4.605-4.29 7.022-5.634 10.97-6.106 4.891-.583 9.81-4.606 7.501-6.134-1.435-.95-2.634-6.668-1.835-8.752.379-.987 2.05-2.687 3.716-3.778l3.027-1.983-.777 4.86c-.675 4.218-.503 4.814 1.302 4.512 1.144-.191 3.284-1.009 4.755-1.817 2.24-1.23 2.79-1.17 3.38.368 1.013 2.638-1.801 5.739-3.744 4.127-1.073-.89-1.754-.858-2.353.111-.618 1-1.102.946-1.813-.203-.533-.863-1.24-1.297-1.571-.966-.332.331.612 2.127 2.098 3.99 2.504 3.14 2.981 3.289 6.55 2.045 3.056-1.066 4.523-.993 7.125.352 2.938 1.52 3.93 1.447 9.576-.698 4.946-1.88 6.896-2.12 9.085-1.123 2.014.917 3.507.898 5.378-.068 5.312-2.745 6.784-4.815 6.124-8.615-.977-5.631.813-7.476 5.529-5.696 3.209 1.211 4.146 1.163 5.597-.287 1.535-1.536 1.403-2.103-1.113-4.782-2.422-2.577-2.591-3.217-1.115-4.213.957-.646 4.545-.878 7.973-.515 6.273.665 14.09-1.786 12.728-3.99-1.193-1.93-8.393-2.487-14.493-1.122-5.41 1.21-6.83 1.113-10.976-.757-6.44-2.904-7.198-6.302-2.781-12.458 5.685-7.924 6.725-10.449 5.105-12.4-2.398-2.89-4.754-1.948-10.232 4.091-2.895 3.191-6.84 6.455-8.766 7.253-1.927.798-4.31 3.011-5.296 4.918-1.605 3.105-1.603 3.756.025 6.24.999 1.525 2.894 3.115 4.21 3.533 3.623 1.15 2.906 3.308-2.276 6.854-1.594 1.09-3.72 4.176-4.724 6.856-1.259 3.359-3.173 5.65-6.157 7.374-4.208 2.429-4.4 2.439-6.725.334-1.316-1.191-2.712-3.62-3.103-5.399-.39-1.778-2.164-4.975-3.942-7.104l-3.231-3.87-4.098 2.497c-2.253 1.374-5.16 2.488-6.46 2.476-3.747-.035-8.086-4.083-8.377-7.816-.144-1.856-.626-4.283-1.07-5.396-1.06-2.645 4.23-7.606 9.726-9.124 5.516-1.523 16.704-9.364 18.61-13.043.848-1.636 3.722-4.93 6.386-7.318s4.843-4.869 4.843-5.512c0-.643 2.525-2.07 5.61-3.169 3.086-1.1 8.268-3.095 11.516-4.433 3.987-1.644 8.973-2.513 15.353-2.676 11.148-.285 18.439 1.192 24.454 4.956 3.019 1.889 5.401 2.533 7.68 2.077 4.078-.815 25.815 5.922 26.72 8.282.911 2.373-5.323 4.612-10.687 3.84-2.457-.354-7.538-1.3-11.29-2.103-5.053-1.08-7.17-1.115-8.153-.132-.983.984-.492 1.71 1.893 2.796 1.772.807 3.99 2.953 4.929 4.769 2.39 4.624 10.049 8.393 14 6.89 3.796-1.442 3.77-1.898-.236-4.07-3.704-2.01-1.994-2.445 2.658-.676 3.715 1.412 7.923-.345 6.943-2.899-.459-1.196.832-2.06 4.473-2.993 7.793-1.996 8.363-2.282 7.717-3.862-2.445-5.977-2.48-5.805 1.078-5.399 1.898.217 3.284 1.028 3.127 1.83-.156.793.833 2.04 2.198 2.77 2.05 1.097 3.667.706 9.304-2.249 8.266-4.333 14.702-5.746 17.102-3.754 1.338 1.11 3.557 1.118 9.979.035 4.542-.766 8.774-1.074 9.405-.684.63.39 1.495.145 1.92-.544.93-1.506-1.643-4.923-3.052-4.052-1.701 1.051-7.287-.832-6.072-2.047 1.224-1.224 34.092 6.435 36.06 8.403 1.325 1.326 5.524-.443 5.524-2.328 0-.635-2.345-2.294-5.21-3.686-8.883-4.316-9.453-11.228-1.099-13.324 4.848-1.217 6.945.187 13.651 9.14 8.707 11.623 8.485 11.031 5.64 15.026-2.106 2.958-2.233 3.65-.772 4.211 2.77 1.063 8.695-2.655 9.53-5.978.977-3.894-.848-7.213-5.205-9.466-3.426-1.772-5.906-5.018-5.906-7.73 0-.926 1.285-1.156 3.839-.69 3.828.7 6.995-.689 15.666-6.868 1.982-1.413 5.335-2.345 8.714-2.421 6.856-.156 9.075-1.307 7.102-3.684-.773-.932-1.16-1.94-.86-2.241 1.508-1.509 20.953-4.227 25.43-3.555 4.31.646 5.643.296 9.188-2.408 2.281-1.74 4.148-3.631 4.148-4.204 0-1.443-10.321-1.314-11.22.14-1.238 2.002-2.842 1.306-2.39-1.037.38-1.979-.619-2.301-9.221-2.97-23.492-1.83-25.401-2.259-22.583-5.077 2.478-2.478 8.555-2.43 13.642.108 2.084 1.04 5.536 1.89 7.671 1.89 2.136 0 4.211.532 4.613 1.181.401.65 2.47 1.181 4.597 1.181 5.89 0 17.28 2.545 16.565 3.7-.348.564.754 1.024 2.448 1.024 1.695 0 4.782.916 6.861 2.034 2.796 1.505 6.701 2.046 15 2.08 8.92.035 11.886.493 14.468 2.235 1.787 1.205 3.24 2.528 3.231 2.94-.009.413-2.735 2.25-6.057 4.083-8.023 4.426-6.327 6.355 3.378 3.84 6.285-1.628 7.73-1.639 12.934-.093 4.27 1.268 6.935 1.43 9.831.6 2.89-.829 5.858-.65 10.893.654 5.253 1.361 7.975 1.5 11.305.575 7.598-2.11 16.945-1.514 22.368 1.426 2.696 1.462 7.667 4.166 11.047 6.01 5.991 3.268 6.252 3.304 10.408 1.44 3.478-1.558 5.419-1.689 10.549-.708 5.1.975 6.956.856 9.827-.63 2.81-1.452 3.262-2.166 2.19-3.458-2.074-2.5 5.284-3.428 14.324-1.809 4.14.742 9.389 1.482 11.662 1.645 2.274.164 6.716 1.46 9.872 2.88 4.812 2.166 8.443 2.656 22.524 3.043 13.36.367 17.614.902 20.837 2.62 3.271 1.743 7 2.186 19.403 2.307 11.411.112 16.524.653 19.909 2.108 5.464 2.348 7.65 1.487 4.675-1.843-2.139-2.395-2.126-2.398 6.124-1.578 13.825 1.373 30.409 4.398 36.023 6.571 2.923 1.131 8.494 2.446 12.38 2.921 3.887.476 9.557 2.127 12.602 3.67 4.621 2.341 6.123 2.6 9.09 1.566 4.058-1.415 6.69-.396 12.888 4.986l3.85 3.345-2.902.728c-2.912.731-10.645-1.183-13.31-3.295-.784-.62-1.882-.846-2.442-.5-.559.345-3.321-.166-6.138-1.136-6.598-2.273-9.527-1.42-6.522 1.9 2.052 2.268 2.007 2.316-1.907 2.043-7.324-.511-5.31 1.652 5.442 5.846 5.846 2.28 10.88 4.388 11.186 4.684 1.108 1.073-2.546 2.403-5.206 1.895-2.92-.558-10.114 2.575-10.114 4.405 0 .608-1.137 2.164-2.526 3.459-2.321 2.162-2.801 2.211-5.906.606-2.905-1.503-3.834-1.518-6.627-.111-1.786.9-4.84 2.019-6.784 2.487-1.945.468-4.199 1.4-5.007 2.072-2.377 1.972 1.814 7.714 7.717 10.572 3.215 1.556 5.542 3.641 6.234 5.585.608 1.705 1.895 4.507 2.862 6.225 1.575 2.8 1.561 3.2-.131 3.849-1.24.476-1.606 1.43-1.065 2.78.452 1.132.963 3.386 1.135 5.01.173 1.624.694 3.835 1.158 4.913.604 1.404.105 2.195-1.757 2.786-2.072.658-3.469-.135-6.876-3.902-2.352-2.6-6.275-6.18-8.718-7.955-2.443-1.775-6.82-6.39-9.726-10.257-5.127-6.82-5.232-7.131-3.531-10.422.965-1.865 1.773-4.613 1.796-6.107.024-1.494.772-4.036 1.665-5.65 1.706-3.08 1.049-5.541-2.598-9.725-2.395-2.746-6.655-.687-5.58 2.698.99 3.118-2.047 4.129-5.54 1.843-1.514-.991-5-2.16-7.746-2.599-4.714-.752-5.065-.608-6.286 2.598-.712 1.867-1.01 4.819-.664 6.559.54 2.712.165 3.266-2.625 3.88-1.898.416-5.148-.077-7.798-1.184-2.91-1.216-5.65-1.584-7.623-1.023-1.695.482-7.423.92-12.73.972-8.406.084-10.025.45-12.58 2.85-1.613 1.516-3.55 5.236-4.306 8.268-.756 3.032-2.14 6.696-3.077 8.142-1.62 2.5-1.463 2.752 3.166 5.113 5.024 2.563 10.501 3.238 14.653 1.806 3.203-1.104 12.974 6.514 16.025 12.494 1.25 2.449 3.315 5.011 4.59 5.694 4.824 2.582 5.804 19.521 1.77 30.596-2.793 7.668-5.919 10.175-10.51 8.43-1.753-.667-3.366-1.213-3.582-1.213-.217 0-1.531 2.18-2.92 4.846-1.824 3.5-2.18 5.262-1.28 6.346 1.72 2.074.447 4.771-2.994 6.34-1.589.723-2.888 1.83-2.888 2.459 0 .628 3.695 3.686 8.212 6.794 5.745 3.955 8.815 6.992 10.223 10.114 1.107 2.455 1.797 4.658 1.533 4.896-.264.239-2.678 1.542-5.365 2.896l-4.885 2.463-2.939-6.747c-3.289-7.55-6.11-10.587-11.081-11.924-2.503-.674-3.375-1.63-3.375-3.697 0-1.896-1.226-3.507-3.828-5.032-3.792-2.221-3.867-2.219-7.902.275-4.039 2.496-4.085 2.498-5.326.18-.688-1.285-1.25-3.15-1.25-4.145 0-.994-.993-2.339-2.207-2.988-1.804-.966-2.944-.382-6.26 3.206-2.23 2.413-5.087 4.974-6.349 5.692-1.957 1.113-2.062 1.584-.712 3.21.87 1.048 3.873 3.187 6.674 4.752 4.455 2.49 5.307 2.631 6.81 1.13 1.427-1.429 2.59-1.48 6.9-.311l5.183 1.407-2.889 1.93c-5.357 3.581-7.047 5.461-7.811 8.693-.628 2.652-.253 3.45 2.127 4.534 1.59.725 4.005 3.613 5.369 6.42 1.363 2.806 4.087 6.052 6.052 7.213 4.323 2.553 5.577 5.266 3.08 6.664-2.327 1.302-1.216 3.249 1.855 3.249 3.679 0 3.7 2.194.145 14.858-4.306 15.337-8.193 20.455-18.363 24.175-4.005 1.465-8.876 2.752-10.825 2.86-4.53.25-8.042 2.169-11.107 6.065l-2.433 3.093-1.134-2.984c-1.48-3.893-4.875-4.872-9.746-2.811-4.465 1.889-7.408 4.9-8.595 8.796-1.063 3.485 2.7 9.615 8.927 14.548 5.113 4.05 10.85 14.211 12.197 21.606 1.172 6.431-.904 10.652-6.474 13.164-2.537 1.144-4.911 3.02-5.276 4.17-.876 2.758-6.12 6.194-7.081 4.638-.4-.648-.417-2.162-.035-3.364.381-1.202.363-3.047-.042-4.101-.582-1.517-1.227-1.654-3.092-.655-1.942 1.04-2.691.776-4.26-1.498-3.854-5.59-15.026-14.57-18.123-14.57-1.091 0-1.512 1.312-1.325 4.133.15 2.274-.314 6.707-1.03 9.85-1.166 5.124-1.047 6.062 1.152 9.036 1.349 1.825 2.788 4.654 3.198 6.287.416 1.658 3.832 5.444 7.739 8.577 6.51 5.222 7.196 6.253 9.936 14.927 1.62 5.125 2.944 9.822 2.944 10.438 0 2.003-2.468 1.191-7.616-2.506-5.323-3.823-8.723-9.87-11.558-20.56-1.231-4.641-2.581-6.63-6.41-9.449-4.698-3.455-4.84-3.757-4.462-9.474.216-3.248.748-7.852 1.183-10.23.614-3.35.107-5.749-2.246-10.63-1.671-3.468-3.647-8.793-4.392-11.835-1.662-6.794-4.01-7.932-8.16-3.955-1.717 1.644-3.452 2.99-3.858 2.99-1.88 0-4.462-4.002-3.843-5.954 1.126-3.545-5.794-15.903-9.843-17.58-2.215-.918-4.24-3.144-5.596-6.15-2.356-5.223-4.998-7.221-7.637-5.777-.958.524-4.791 1.579-8.52 2.343-6.833 1.402-9.285 3.471-8.35 7.049.345 1.317-.85 2.59-3.718 3.957-2.325 1.108-4.83 3.338-5.566 4.954-.736 1.617-2.358 3.263-3.603 3.658-1.246.395-3.167 2.203-4.27 4.017-1.103 1.813-4.389 5.129-7.3 7.366-3.986 3.063-5.23 4.777-5.032 6.931 1.158 12.595-.619 23.133-4.956 29.39-4.23 6.104-4.527 6.275-8.106 4.644-1.97-.898-3.182-2.65-3.684-5.327-.412-2.194-2.79-8.375-5.287-13.736-15.101-32.436-17.334-38.625-16.048-44.482.87-3.958-1.216-9.93-3.232-9.254-.808.271-1.483 1.245-1.5 2.163-.1 5.391-6.157 6.219-10.888 1.488l-3.134-3.135 2.696-.997c3.035-1.123 2.756-4.15-.33-3.595-1.097.197-3.607-.999-5.579-2.657-1.97-1.66-4.039-3.016-4.595-3.016-.555 0-1.35-1.07-1.764-2.375-1.089-3.43-7.354-6.414-10.494-4.998-2.826 1.274-28.463 1.008-32.754-.34-1.545-.486-4.404-2.708-6.353-4.938-3.522-4.03-3.576-4.047-8.858-2.623-5.005 1.35-5.733 1.222-12.474-2.181-5.826-2.94-7.571-4.527-9.37-8.515-2.294-5.088-7.39-8.773-10.489-7.584-.975.375-2.115 2.235-2.532 4.134-.6 2.728.011 4.5 2.907 8.439 2.016 2.741 4.213 7.017 4.882 9.5 1.437 5.335 4.273 6.922 6.625 3.706 1.419-1.94 1.802-2.008 2.762-.487.614.971.944 2.297.735 2.947-.656 2.042 6.16 5.401 9.34 4.603 1.606-.403 5.04-3.14 7.63-6.082 4.08-4.636 5.505-4.949 4.807-1.056-.47 2.62 1.592 5.69 5.004 7.455 5.27 2.724 12.613 8.794 12.613 10.426 0 .752-1.38 2.656-3.067 4.231-1.688 1.575-4.116 4.907-5.397 7.405-3.111 6.069-12.13 14.946-15.185 14.946-3.53 0-8.78 2.98-10.87 6.17-.991 1.512-3.595 3.644-5.786 4.738-11.226 5.604-24.742 11.286-28.546 12-4.066.762-4.396.578-6.55-3.67-1.248-2.461-2.663-7.398-3.146-10.97-.627-4.647-1.844-7.6-4.274-10.376-1.868-2.134-3.397-4.392-3.397-5.018 0-.626-2.131-3.335-4.736-6.02-3.245-3.342-5.341-6.97-6.655-11.516-1.055-3.65-3.203-8.23-4.772-10.18-10.84-13.46-14.049-18.207-15.665-23.163-2.141-6.569-3.952-7.63-4.788-2.805l-.593 3.426-3.996-5.045c-6.156-7.774-6.932-4.24-1.152 5.25 2.735 4.49 7.094 12.416 9.688 17.613 2.594 5.197 5.956 11.093 7.472 13.103 1.561 2.07 2.757 5.305 2.757 7.46 0 4.45 1.327 7.228 6.543 13.688 2.098 2.598 4.17 6.392 4.606 8.43.558 2.614 2.838 5.348 7.739 9.279 7.448 5.974 12.274 12.21 13.472 17.407.45 1.952 2.155 3.956 4.316 5.073 3.294 1.704 4.453 1.657 14.862-.598 6.21-1.346 12.787-3.22 14.617-4.167l3.327-1.72.79 4.675c.718 4.248-.054 6.294-8.462 22.42-9.04 17.34-9.464 17.912-18.452 25.009-5.06 3.994-10.355 8.885-11.767 10.867-1.412 1.983-5.928 7.337-10.037 11.9-11.99 13.313-13.62 25.022-5.668 40.716 2.02 3.986 2.809 7.004 2.33 8.911-.398 1.587-.143 5.594.567 8.905 1.118 5.214.992 6.608-.943 10.4-2.793 5.471-5.014 7.438-12.82 11.35-3.411 1.709-6.201 3.612-6.201 4.229s-2.392 3.814-5.315 7.106c-2.923 3.291-5.315 6.519-5.315 7.173 0 .653 1.096 3.336 2.435 5.961 4.015 7.87 1.317 13.573-8.307 17.56-4.057 1.68-5.39 5.112-4.386 11.296.526 3.24.192 4.32-1.645 5.302-1.267.678-3.559 3.203-5.092 5.611-4.842 7.604-18.759 21.058-25.081 24.247-5.276 2.661-6.626 2.896-10.502 1.825-3.417-.943-6.175-.794-11.905.645-9.28 2.332-8.296 2.428-11.89-1.166zM628.402 541.51c3.05-1.577 3.485-2.445 3.485-6.942 0-3.224-.69-5.712-1.85-6.675-1.017-.844-2.665-3.113-3.662-5.041-1.65-3.19-1.643-3.44.078-2.78 2.271.871 5.434-.177 5.434-1.802 0-.642-1.099-2.711-2.442-4.597-2.023-2.84-2.833-3.22-4.724-2.208-1.53.819-2.283.826-2.283.023 0-.659-2.108-2.274-4.684-3.588-5.702-2.91-7.731-6.132-5.953-9.455 1.346-2.515 6.155-4.277 8.208-3.008 2.769 1.71 3.585-.812 1.3-4.02-5.54-7.779-13.252-7.267-22.818 1.515-6.172 5.668-6.708 7.174-3.217 9.042 1.299.695 2.362 2.055 2.362 3.02 0 .967 2.1 4.036 4.668 6.822 5.914 6.415 6.998 9.347 6.267 16.94l-.59 6.113 8.115 4.163c4.463 2.29 8.273 4.19 8.468 4.222.194.032 1.922-.753 3.838-1.744zm-32.538 329.91c-3.335-1.892-3.808-2.89-4.68-9.861-.695-5.571-.405-6.782 2.928-12.198 3.387-5.505 3.63-6.565 2.883-12.544-1.078-8.633.758-13.17 5.775-14.271 4.728-1.037 14.957-10.067 17.408-15.368l1.872-4.05 1.302 2.857c3.276 7.189 2.942 10.347-2.756 26.114-3.049 8.436-6.32 18.527-7.27 22.425-3.036 12.474-4.762 15.481-9.736 16.972-5.297 1.586-4.784 1.591-7.726-.077zm581.796-20.534c-3.768-4.124-6.023-7.661-6.023-9.449 0-3.963.636-3.617 4.044 2.199 1.63 2.78 4.575 6.6 6.546 8.488 1.97 1.888 3.582 3.865 3.582 4.393 0 2.271-2.514.534-8.149-5.631zm-526.876-1.677c0-.65.532-1.18 1.181-1.18.65 0 1.181.53 1.181 1.18 0 .65-.531 1.181-1.18 1.181-.65 0-1.182-.531-1.182-1.18zm621.963-2.154c-.417-.674-.182-1.581.521-2.016 1.755-1.085 2.377-.222 1.205 1.673-.627 1.015-1.236 1.136-1.726.343zm-613.695-1.91c0-.286.531-.85 1.18-1.25.65-.402 1.182-.168 1.182.52 0 .688-.532 1.251-1.181 1.251-.65 0-1.181-.234-1.181-.52zm582.98-11.987c-1.15-2.998.31-4.048 3.566-2.565 2.81 1.28 2.872 1.476.913 2.908-2.738 2.003-3.603 1.936-4.478-.343zm7.484-5.252c-2.308-1.427-.71-2.566 2.963-2.112 2.877.356 2.943.486.888 1.752-1.313.81-2.886.956-3.851.36zm-55.144-4.335c-2.425-5.222-1.575-7.229.933-2.201 2.61 5.231 2.656 5.402 1.43 5.39-.488-.005-1.55-1.44-2.363-3.189zm4.522-.837c-.05-1.246.228-1.943.62-1.55.393.392.435 1.41.094 2.263-.377.942-.657.662-.714-.713zm96.152-11.34c-1.081-1.749-.056-2.643 2.466-2.15 1.845.36 1.865.551.198 1.933-1.328 1.1-2.08 1.162-2.664.217zm-698-5.884c-.402-.65-.168-1.182.52-1.182.688 0 1.25.532 1.25 1.182 0 .65-.233 1.18-.52 1.18-.286 0-.85-.53-1.25-1.18zm518.49-11.097c-7.474-2.357-10.863-4.546-13.805-8.918-3.36-4.994-9.51-8.775-12.651-7.778-1.27.403-3.407 2.594-4.75 4.869-2.284 3.873-2.723 4.086-6.876 3.348-2.44-.434-5.848-2.105-7.574-3.713-2.193-2.045-3.874-2.69-5.586-2.147-1.347.427-3.299.302-4.337-.28-1.623-.908-1.464-1.334 1.132-3.035 3.009-1.971 3.013-1.998.995-6.23-1.621-3.399-3.857-5.17-11.17-8.846-5.028-2.529-10.713-4.597-12.633-4.597-4.392 0-6.205-4.049-2.897-6.468 1.968-1.44 1.68-1.797-3.454-4.291-5.452-2.649-5.53-2.76-2.926-4.207 1.472-.817 3.841-1.505 5.266-1.528 2.767-.044 6.268 3.948 6.268 7.149 0 1.067 1.148 3.4 2.552 5.184 2.515 3.198 2.58 3.211 4.429.902 1.032-1.288 4.327-3.747 7.322-5.463l5.444-3.12 7.547 3.405c4.151 1.873 10.044 4.304 13.094 5.404 3.051 1.1 9.154 4.367 13.561 7.262 8.418 5.529 12.075 10.19 9.977 12.717-1.71 2.06 5.006 11.443 11.958 16.707 7.64 5.787 7.511 6.322-.886 3.674zm51.4-.095c-.932-1.123-1.021-1.8-.238-1.8 1.427 0 3.092 2.24 2.272 3.06-.297.297-1.212-.27-2.034-1.26zm-198.445-4.808c-1.711-.946-2.207-1.643-1.18-1.657 2.11-.028 5.483 1.938 4.689 2.732-.307.307-1.886-.176-3.51-1.075zm19.969-1.56c3.349-4.704 8.59-6.717 13.437-5.161 3.531 1.134 3.586 1.229.782 1.34-1.659.067-5.53 1.716-8.603 3.664-7.012 4.447-8.705 4.494-5.616.156zm171.366 1.615c-1.596-1.923-1.214-2.163 1.675-1.055 1.028.395 1.868 1.192 1.868 1.772 0 1.634-1.914 1.246-3.543-.717zm5.532-1.042c-.444-1.157-.774-2.99-.733-4.074.05-1.305.46-1.007 1.215.881.627 1.568.957 3.402.732 4.074-.224.673-.77.276-1.214-.881zm91.316 1.112c0-.287.531-.85 1.18-1.251.65-.401 1.182-.167 1.182.52 0 .689-.531 1.252-1.181 1.252s-1.181-.235-1.181-.521zm-302.067-4.96c-.816-.345-1.183-1.113-.816-1.707.903-1.46 8.472-1.378 9.387.101.401.65.034 1.188-.817 1.197-.85.01-2.609.245-3.908.525s-3.03.227-3.846-.117zm17.535-.887c-2.146-2.586.327-3.373 5.89-1.875 5.606 1.51 5.587 1.745-.223 2.794-3.017.545-4.676.276-5.667-.92zm177.328-.719c-.817-1.308-.962-2.362-.325-2.362.632 0 1.718 1.063 2.413 2.362.696 1.3.842 2.362.326 2.362s-1.602-1.063-2.414-2.362zm7.397-1.188c-3.158-3.49-1.467-4.038 1.782-.579 1.524 1.622 2.228 2.948 1.566 2.948-.662 0-2.169-1.066-3.348-2.37zm-221.445-.205c-4.222-.585-10.175-1.884-13.23-2.886-3.053-1.002-6.651-1.473-7.995-1.046-2.704.858-14.207-2.524-14.207-4.177 0-3.775 10.588-4.062 16.215-.439 2.1 1.353 3.756 1.443 8.197.448 4.92-1.103 5.945-.967 8.836 1.17 1.798 1.33 3.805 2.418 4.459 2.418 2.335 0 9.424 3.95 8.825 4.919-.335.542-1.242.912-2.016.822-.774-.09-4.861-.644-9.084-1.229zm212.003-5.693c-1.176-1.3-1.606-2.362-.957-2.362.65 0 2.143 1.063 3.319 2.362 1.176 1.299 1.606 2.362.957 2.362-.65 0-2.143-1.063-3.32-2.362zm-7.448-1.496c-.671-.809-1.562-3.062-1.98-5.007-.674-3.133-.598-3.267.66-1.174.782 1.299 2.179 3.24 3.105 4.312.98 1.136 1.214 2.239.559 2.644-.619.382-1.673.033-2.344-.775zm-25.013-3.755-2.935-1.625 4.549-.853c2.502-.47 6.347-2.432 8.544-4.362 2.4-2.106 3.989-2.869 3.978-1.91-.027 2.402-1.48 4.253-5.894 7.51-4.612 3.402-4.394 3.37-8.242 1.24zm-221.552-4.6c-4.339-2.471-12.165-12.035-14.713-17.98-1.375-3.206-4.524-8.487-7-11.735-2.475-3.248-5.316-7.5-6.314-9.449-.997-1.948-4.027-5.669-6.732-8.267-5.705-5.479-9.213-11.236-6.822-11.194 3.099.053 11.077 4.489 14.499 8.06 9.44 9.855 11.373 11.609 15.83 14.354 4.3 2.65 6.336 5.407 6.54 8.858.039.65 1.262 2.51 2.718 4.134 1.456 1.624 4.204 4.678 6.106 6.787 1.902 2.11 3.802 5.4 4.222 7.313 1.375 6.26-3.667 11.778-8.334 9.12zm-237.904-.779c0-.65.532-1.181 1.181-1.181.65 0 1.182.532 1.182 1.181 0 .65-.532 1.181-1.182 1.181-.65 0-1.18-.531-1.18-1.18zm312.387-.01c-.405-.656-.408-2.226-.011-3.49.401-1.265-.087-3.542-1.087-5.068-1.644-2.51-1.629-3.036.167-5.6 1.09-1.557 2.376-5.736 2.858-9.287.595-4.382 1.769-7.35 3.654-9.234 2.577-2.578 3.225-2.692 9.02-1.593 4.975.943 6.932.827 9.64-.574 4.536-2.345 4.867-2.24 3.36 1.065-1.914 4.202-5.739 5.545-9.772 3.431-7.203-3.773-16.76 1.835-11.717 6.877 1.853 1.853 2.878 2.022 6.311 1.037 5.884-1.687 8.203-1.377 4.55.608-4.136 2.247-4.921 4.74-2.79 8.862.97 1.876 1.764 4.784 1.764 6.463 0 2.688-.283 2.902-2.364 1.788-1.3-.696-3.176-3.209-4.169-5.584-1.79-4.286-1.822-4.301-4.114-2.01-2.01 2.01-2.146 2.903-1.046 6.887.995 3.6.928 4.791-.313 5.577-2.086 1.323-3.055 1.285-3.945-.155zm162.044-6.3c-1.113-1.7-3.663-3.937-5.666-4.973-2.003-1.035-3.376-2.149-3.051-2.473 1.836-1.837 12.085 6.504 11.212 9.125-.269.805-1.34.084-2.495-1.679zm-185.471-3.93c-1.782-.934-4.183-1.399-5.335-1.033-2.938.932-14.61-1.443-15.766-3.209-.92-1.405-3.626-10.058-5.073-16.226-.398-1.696 0-3.896.93-5.169 1.351-1.847 2.05-1.987 4.191-.841 2.26 1.209 2.739 1.002 3.978-1.717.775-1.7 3.353-4.084 5.73-5.297 2.519-1.285 4.938-3.69 5.796-5.76.988-2.386 2.794-3.99 5.497-4.882 2.213-.73 5.41-3.145 7.104-5.366 1.694-2.22 3.71-4.038 4.48-4.038.77 0 3.1 1.755 5.178 3.9l3.78 3.898-3.03 4.073c-3.441 4.628-3.26 8.608.638 14.084l2.36 3.315-2.94 1.927c-1.618 1.06-2.94 2.58-2.937 3.377.011 2.705-7.558 18.298-9.455 19.482-1.32.825-2.858.67-5.126-.519zm68.61-.023c-2.444-.638-2.783-2.729-.443-2.729.893 0 3.393.354 5.555.787 3.328.665 3.577.924 1.624 1.688-2.565 1.003-3.705 1.046-6.736.254zm188.086-15.06c0-.287.531-.85 1.18-1.251.65-.401 1.182-.167 1.182.52 0 .689-.532 1.252-1.181 1.252-.65 0-1.181-.235-1.181-.521zm-192.224-3.203c-.944-.945-1-2.04-.181-3.568.649-1.213.865-2.715.48-3.338-1.065-1.723 1.603-5.905 3.768-5.905 1.737 0 1.73.202-.076 2.197-1.56 1.724-1.734 2.865-.807 5.304 1.875 4.931-.164 8.33-3.185 5.31zm-593.19-3.884c0-.286.532-.849 1.182-1.25.65-.402 1.181-.167 1.181.52 0 .688-.531 1.251-1.181 1.251s-1.181-.234-1.181-.52zm819.074-3.022c-.401-.65-.167-1.181.52-1.181.689 0 1.252.531 1.252 1.181s-.235 1.181-.521 1.181c-.287 0-.85-.531-1.251-1.181zm-811.987-11.15c0-.287.532-.85 1.181-1.251.65-.402 1.181-.167 1.181.52 0 .688-.531 1.251-1.18 1.251-.65 0-1.182-.234-1.182-.52zm568.108-17.758c-2.253-5.255-2.553-5.491-6.02-4.73-3.456.759-3.577.666-2.282-1.753 1.073-2.004 2.067-2.401 4.607-1.843 2.45.538 4.015-.006 6.414-2.23 1.746-1.618 3.186-3.897 3.2-5.065.037-2.981 4.423 7.016 5.424 12.361.76 4.058.665 4.28-1.18 2.75-2.74-2.27-5.378.085-3.13 2.794.897 1.08 1.012 1.821.282 1.821-.676 0-2.065.321-3.086.713-1.372.526-2.48-.736-4.23-4.818zm-215.343 2.087c-1.32-2.145-2.072-11.77-1.118-14.323 1.012-2.709 1.088-2.676 4.097 1.771 3.606 5.33 4.76 8.748 3.57 10.573-1.139 1.747-5.821 3.161-6.55 1.979zm263.755-6.11c0-.65.531-1.51 1.18-1.91.65-.402 1.182-.2 1.182.45s-.532 1.51-1.181 1.911c-.65.402-1.181.199-1.181-.45zm185.428-.14c0-.649.234-1.18.52-1.18.287 0 .85.531 1.252 1.18.401.65.167 1.182-.521 1.182-.688 0-1.251-.531-1.251-1.181zm-268.103-6.823c0-.505 2.367-3.56 5.262-6.79 4.24-4.734 5.272-5.403 5.314-3.447.03 1.335-1.746 4.39-3.945 6.791-3.728 4.07-6.631 5.58-6.631 3.446zm25.58-3.151c-.43-1.121-.342-2.824.195-3.784.832-1.486 1.178-1.5 2.344-.096 1.044 1.257.998 2.153-.194 3.783-1.464 2.002-1.61 2.008-2.344.097zM77.81 682.273c.724-.872.966-1.935.539-2.362-.428-.427.324-.777 1.671-.777 1.867 0 2.302.56 1.83 2.362-.358 1.372-1.61 2.362-2.986 2.362-1.848 0-2.08-.348-1.054-1.585zm912.379-.313c-.44-1.23-1.016-2.634-1.279-3.121-.263-.488.023-.886.635-.886 1.178 0 2.838 4.85 1.96 5.727-.284.284-.876-.49-1.316-1.72zm-11.969-3.081c-1.659-1.999-.042-4.844 2.439-4.29 1.555.347 1.612.838.364 3.148-1.204 2.23-1.724 2.442-2.803 1.142zm13.964-4.06c-1.355-1.722-2.267-3.33-2.026-3.57.96-.96 4.28 1.155 6.047 3.85 2.716 4.146-.729 3.906-4.021-.28zm-19.416-4.571c-1.052-1.052-1.912-2.524-1.912-3.272 0-.747 1.166-.193 2.591 1.233 1.426 1.425 2.286 2.898 1.913 3.271-.374.374-1.54-.18-2.592-1.232zm-927.085-.169c-.433-.433-.788-1.337-.788-2.008 0-.74.55-.67 1.398.177.769.769 1.123 1.673.787 2.008-.335.336-.964.256-1.397-.177zm-6.693-1.575c0-.65.234-1.18.52-1.18.287 0 .85.53 1.252 1.18.401.65.167 1.181-.521 1.181-.688 0-1.251-.531-1.251-1.18zm55.51-2.362c0-.65.235-1.181.521-1.181.287 0 .85.531 1.251 1.181.401.65.167 1.181-.52 1.181-.689 0-1.252-.531-1.252-1.18zm890.148-.18c-1.184-.668-3.429-.894-4.989-.502-2.286.573-3.863-.346-8.144-4.751-6.048-6.222-7.223-8.846-5.45-12.16.686-1.282 1.247-3.928 1.247-5.881 0-6.411 4.294-6.152 7.442.45 1.744 3.656 1.755 4.441.116 8.364-1.765 4.223-1.73 4.411 1.418 7.696 2.273 2.373 3.979 3.179 5.775 2.728 1.519-.381 3.157.091 4.05 1.168 2.127 2.562 1.2 4.391-1.466 2.888zm-897.234-7.427c0-.287.531-.85 1.181-1.25.65-.402 1.181-.168 1.181.52 0 .688-.531 1.25-1.181 1.25s-1.181-.234-1.181-.52zm185.428-4.204c0-.65.532-1.18 1.181-1.18.65 0 1.181.53 1.181 1.18 0 .65-.531 1.181-1.18 1.181-.65 0-1.182-.531-1.182-1.18zM83.87 649.746c0-.65.531-1.51 1.18-1.91.65-.402 1.182-.199 1.182.45 0 .65-.532 1.51-1.181 1.912-.65.401-1.181.198-1.181-.452zm-10.031-4.85c-.414-.67.06-.867 1.111-.464 2.046.785 2.42 1.632.722 1.632-.611 0-1.436-.526-1.833-1.168zm187.782-.013c-.401-.65-.167-1.181.52-1.181.689 0 1.252.531 1.252 1.18 0 .65-.235 1.182-.521 1.182-.287 0-.85-.532-1.251-1.181zM78.555 642.52c-.402-.65-.167-1.181.52-1.181.689 0 1.251.531 1.251 1.18 0 .65-.234 1.182-.52 1.182-.287 0-.85-.532-1.251-1.181zm5.315 0c0-.65.234-1.181.52-1.181.287 0 .85.531 1.251 1.18.402.65.167 1.182-.52 1.182-.688 0-1.251-.532-1.251-1.181zM2.67 639.376c-.812-.327-1.476-1.083-1.476-1.678 0-1.703 5.213-1.265 7.746.651 2.178 1.648 2.116 1.732-1.25 1.679-1.95-.03-4.208-.324-5.02-.652zm29.886-.67c-1.06-.593-3.4-.754-5.2-.358-1.801.395-4.571.2-6.156-.434-2.547-1.019-2.322-1.14 1.95-1.04 6.28.148 7.956-.875 6.351-3.874-1.139-2.128-.797-2.29 4.838-2.29 5.45 0 13.313 2.5 14.646 4.656.886 1.434-14.314 4.524-16.429 3.34zm22.655.747c-1.4-1.4.34-2.838 3.433-2.838 1.857 0 2.798.557 2.495 1.477-.545 1.653-4.685 2.604-5.928 1.361zm854.478-1.878c-3.128-3.127-.032-6.865 5.685-6.865 2.535 0 2.537.02.362 3.744-2.534 4.34-4.048 5.12-6.047 3.12zm-844.717-.243c0-.255.797-.77 1.771-1.144.975-.374 1.772-.165 1.772.464 0 .63-.797 1.144-1.772 1.144-.974 0-1.771-.209-1.771-.464zm-51.056-8.466c-.364-.365-2.857-.693-5.54-.73-3.701-.051-4.589-.415-3.681-1.51.877-1.056-.383-2.464-4.725-5.278-8.513-5.516-13.267-6.594-18.986-4.306-5.363 2.146-5.774 2.207-5.774.856 0-2.473 9.4-5.191 16.168-4.677 6.474.492 10.098 1.87 22.807 8.67 10.447 5.588 10.459 5.6 7.087 6.56-3.83 1.092-6.526 1.244-7.356.415zm8.537-9.967c2.29-1.48 3.543-1.48 3.543 0 0 .65-1.196 1.173-2.657 1.163-2.15-.014-2.319-.237-.886-1.163zm940.605-2.094c-.715-.472-1.944-2.081-2.731-3.576-1.187-2.253-1.064-3.347.72-6.401 2.755-4.717 4.615-5.305 5.51-1.743.94 3.748-1.779 12.855-3.499 11.72zM30.21 615.23c.788-1.276 5.237-1.42 5.236-.17 0 .487-1.326.962-2.945 1.055-1.62.094-2.65-.305-2.292-.885zM6.852 603.848c-1.889-2.168-1.614-5.027.483-5.027.671 0 .95 1.037.618 2.306-.332 1.268.004 2.523.748 2.79.743.268 1.037.828.655 1.245-.383.418-1.51-.173-2.504-1.314zm6.861-9.279c-.42-1.095-.498-2.257-.174-2.582.325-.325.935.306 1.355 1.401.42 1.095.499 2.257.174 2.582-.325.325-.935-.305-1.355-1.4zm-7.401-1.063c0-.974 1.012-1.771 2.25-1.771 1.999 0 2.052.196.477 1.771-.974.975-1.986 1.772-2.25 1.772-.262 0-.477-.797-.477-1.772zm990.525-25.893c0-.924-1.29-3.214-2.867-5.088-3.743-4.449-2.417-7.418 2.016-4.513 3.186 2.088 4.852 6.354 3.676 9.417-.891 2.323-2.825 2.45-2.825.184zm-916.511-7.107c0-.287.531-.85 1.18-1.25.65-.402 1.182-.168 1.182.52 0 .688-.532 1.25-1.181 1.25-.65 0-1.181-.234-1.181-.52zm923.093-1.452c-.765-1.995 1.042-3.881 3.753-3.915 1.876-.023 1.911 2.618.059 4.47-1.926 1.926-2.915 1.782-3.812-.555zm10.791-4.311c-2.293-3.5-5.532-3.98-12.948-1.92-3.015.837-5.092.846-6.496.029-1.134-.661-1.44-1.218-.677-1.238.762-.02 2.987-1.383 4.944-3.03 2.525-2.124 4.375-2.79 6.37-2.289 2.114.531 4.396-.484 9.195-4.09 9.344-7.021 10.189-9.235 6.387-16.737-3.648-7.2-2.632-9.518 2.775-6.324 3.935 2.324 7.642 8.982 6.565 11.789-.388 1.01.19 4.181 1.285 7.046 1.548 4.054 1.695 5.759.662 7.69-1.517 2.834-5.739 4.728-10.538 4.728-2.69 0-3.494.69-4.373 3.755l-1.077 3.756-2.074-3.165zm-478.464-4.031c-1.41-1.41-.66-2.677 1.585-2.677 1.26 0 2.62-.532 3.022-1.181 1.098-1.777 2.97-1.42 2.26.43-.729 1.9-5.843 4.452-6.867 3.428zm-40.274-2.044-3.543-1.622 4.724-.08c5.884-.1 10.219 1.004 9.366 2.384-.95 1.538-6.48 1.18-10.547-.682zm-47.711-11.782c-4.727-2.42-4.95-2.722-2.482-3.367 2.956-.773 9.497.189 9.363 1.377-.045.405-.444 1.618-.886 2.693-.725 1.768-1.3 1.7-5.995-.703zm-23.673-12.778c-1.022-2.932-.942-4.054.387-5.382 2.4-2.402 4.267-.714 4.267 3.86 0 5.4-2.964 6.37-4.654 1.522zm-27.695.982c.838-2.184 4.431-2.553 3.708-.381-.27.812-1.376 1.648-2.456 1.857-1.37.266-1.75-.18-1.252-1.476zm617.112-13.481c-2.162-3.036-2.221-3.596-.625-5.875 1.569-2.24 1.563-2.91-.053-6.034-2.657-5.138-2.283-5.45 2.324-1.935 2.278 1.737 6.773 3.94 9.989 4.895 6.645 1.974 8.249 3.523 4.784 4.623-1.308.415-2.38 1.526-2.38 2.47 0 1.284-.814 1.505-3.247.883-6.232-1.595-8.003-1.205-7.603 1.671.49 3.526-.305 3.351-3.189-.698zm-587.52 1.387c-1.37-1.37-.853-3.658.985-4.364 1.28-.49 1.772.13 1.772 2.236 0 2.835-1.157 3.728-2.756 2.128zm580.026-24.9c-1.002-1.137-3.417-5.257-5.367-9.156-1.95-3.899-7.105-11.058-11.455-15.91-4.861-5.421-7.33-9.015-6.407-9.323.827-.276 2.6.96 3.94 2.744 3.25 4.327 7.252 8.085 13.566 12.738 5.233 3.856 7.821 7.426 4.444 6.13-3.894-1.494-2.922 2.053 2.118 7.727 2.937 3.308 5.341 6.262 5.341 6.565 0 1.437-4.565.317-6.18-1.515zm-864.27-2.067c0-.975.515-1.772 1.144-1.772.63 0 .838.797.464 1.772-.374.974-.888 1.771-1.144 1.771-.255 0-.464-.797-.464-1.771zm-6.171-3.812-4.4-.461 8.28-8.198c4.553-4.509 8.874-8.198 9.602-8.198.768 0 .538.868-.548 2.068-2.46 2.716-.783 5.769 3.71 6.756 1.962.43 3.917 1.934 4.673 3.592 1.213 2.662 1.007 2.933-3.085 4.07-4.293 1.191-9.417 1.296-18.232.371zm-287.79-8.473c-4.092-3.822-4.548-5.432-1.835-6.473 2.43-.932 6.914 2.107 8.614 5.838 1.783 3.915 1.752 4.062-.874 4.062-1.23 0-3.888-1.542-5.906-3.427zm520.136-6c1.3-.641 3.856-1.705 5.682-2.363 4.022-1.451 3.355-2.997-1.732-4.015-3.49-.697-3.613-.875-1.616-2.335 1.189-.87 1.815-2.14 1.391-2.825-.432-.7.783-1.787 2.773-2.48 1.948-.68 3.542-1.76 3.542-2.4 0-2.729-2.462-7.318-3.83-7.14-3.153.412-4.614-.144-4.105-1.562.29-.812.05-2.406-.534-3.543-1.52-2.956 1.973-9.069 5.22-9.135.488-.01.754.633.591 1.43-.162.797.952 1.638 2.477 1.869l2.772.42-2.649 2.82-2.648 2.82 2.985 1.134c3.205 1.219 6.294 5.188 9.44 12.13 1.506 3.327 2.497 4.196 4.256 3.736 3.61-.944 4.038 1.502.652 3.72-2.295 1.504-2.73 2.35-1.725 3.356 1.005 1.005-.976 1.679-7.846 2.67-5.055.73-11.05 1.671-13.324 2.092-3.162.586-3.579.492-1.772-.4zM348 461.218c-.404-1.053.057-3.445 1.024-5.315 1.11-2.147 1.325-3.67.583-4.13-2.047-1.264-1.28-2.878 1.727-3.633 1.597-.4 3.523-1.474 4.278-2.385 1.574-1.896 8.85-2.244 9.942-.476.4.648-.1 2.36-1.111 3.806-1.012 1.444-1.84 4.04-1.84 5.767 0 2.634-.81 3.421-5.02 4.883-2.76.958-5.881 2.115-6.934 2.57-1.235.534-2.175.148-2.649-1.087zm21.69-11.734c0-.286.53-.85 1.18-1.25.65-.402 1.181-.168 1.181.52 0 .688-.531 1.251-1.18 1.251-.65 0-1.182-.234-1.182-.52zm-524.16-5.69c-1.158-1.395-1.084-2.044.368-3.25 2.4-1.991 3.59-.64 2.193 2.49-.963 2.16-1.313 2.264-2.562.76zm-1.848-8.883c-.399-.645.066-1.83 1.034-2.633 1.92-1.594 2.321-.344.707 2.204-.617.973-1.3 1.142-1.74.429zm-76.34-.753c0-.831 3.582-2.284 8.662-3.515 1.926-.467 3.065-.354 2.682.265-.365.592-2.137 1.373-3.937 1.736-1.8.363-4.203 1.02-5.34 1.46-1.136.44-2.066.464-2.066.054zm701.852-13.28c-2.179-.88-1.793-2.235.69-2.422 1.19-.09 2.165.594 2.165 1.52 0 1.758-.41 1.888-2.855.901zm-259.54-6.038c-7.474-4.075-11.047-10.337-8.881-15.566 1.025-2.474 1.056-4.03.116-5.786-1.956-3.654.596-7.937 7.122-11.952 3.1-1.907 6.194-4.512 6.877-5.787 1.892-3.535.207-9.593-3.086-11.093-1.666-.76-2.573-1.96-2.205-2.92.839-2.185-3.093-9.647-7.01-13.303-2.882-2.691-4.122-2.96-13.992-3.024-13.44-.088-15.945-.835-15.722-4.691.092-1.602.447-2.914.79-2.914.34 0 5.124-.555 10.629-1.232 7.028-.864 13.33-2.647 21.163-5.988 12.13-5.172 13.053-5.273 41.993-4.593 9.139.215 17.546-.462 28.346-2.28 10.057-1.694 17.458-2.333 21.454-1.851 3.396.408 8.312.139 11.088-.609 6.44-1.734 23.176.352 29.758 3.71 3.891 1.985 5.95 2.248 12.516 1.594 7.092-.706 7.628-.613 5.497.952-1.3.954-5.286 2.12-8.858 2.59-7.753 1.021-14.877 6.547-12.989 10.075.815 1.522.23 2.82-2.402 5.344-1.914 1.833-3.76 4.215-4.102 5.294-.822 2.59-11.263 7.412-16.44 7.592-5.75.2-6.352 1.422-1.905 3.872 2.1 1.157 5.167 3.128 6.814 4.38l2.995 2.278-2.707 1.002c-2.076.768-3.76.273-7.214-2.121-4.687-3.248-9.73-3.264-7.04-.023 1.05 1.264.797 1.755-1.166 2.269-4.39 1.148-1.285 3.417 3.556 2.6 3.08-.521 4.813-.247 5.777.914 1.146 1.381-.35 2.02-8.951 3.829-5.68 1.194-13.25 2.214-16.823 2.268-6.637.099-11.42 2.004-18.456 7.352-2.295 1.744-7.17 3.472-12.876 4.563-11.925 2.282-15.954 4.92-23.14 15.152-5.77 8.218-9.25 11.28-12.85 11.31-.974.008-4.428-1.435-7.676-3.207zm-83.744-7.899c-2.536-1.558-5.644-4.465-6.907-6.459-2.465-3.893-4.737-4.387-11.391-2.479-2.253.646-4.78.708-5.791.143-3.498-1.957 2.82-3.882 9.855-3.003 5.351.668 6.54.478 7.164-1.148 1.254-3.267 6.992-5.609 10.182-4.155 1.964.895 3.75.87 6.258-.088 3.375-1.288 3.421-1.404 1.217-3.023-1.261-.925-2.7-1.683-3.198-1.683-.498 0-2.296-2.373-3.996-5.273-1.7-2.9-4.884-6.381-7.078-7.737-3.728-2.304-4.22-2.344-7.555-.62-2.915 1.507-4.6 1.613-9.212.577-3.104-.697-7.438-.932-9.631-.521-3.805.711-10.776-1.15-10.776-2.879 0-3.173 10.002-10.296 15.944-11.353l4.725-.841-3.377 3.598c-4.659 4.963-2.907 7.247 2.152 2.806 2.145-1.884 5.854-3.792 8.24-4.24 3.648-.684 5.21-.238 9.79 2.795 6.093 4.036 6.563 4.144 9.999 2.305 2.07-1.107 2.837-.803 5.084 2.015 1.554 1.95 5.025 4.072 8.41 5.143 5.394 1.707 5.763 2.078 5.763 5.799 0 2.79.805 4.55 2.7 5.905 7.926 5.669 7.753 5.435 6.038 8.18-2.352 3.766-4.209 4.04-9.413 1.384-3.62-1.847-5.203-2.1-7.025-1.125-2.23 1.194-2.254 1.449-.46 4.92 1.474 2.85 1.609 4.289.608 6.486-1.234 2.708-1.43 2.75-4.781 1.018-6.586-3.406-11.021-1.165-4.877 2.464 1.925 1.137 3.231 2.502 2.904 3.032-1.144 1.851-6.988.87-11.565-1.943zm242.598 1.53c0-.542.797-.985 1.772-.985.974 0 1.771.443 1.771.985 0 .54-.797.984-1.771.984-.975 0-1.772-.443-1.772-.984zm-287.13-6.352c-2.328-1.224-4.136-1.33-7.397-.429-5.544 1.531-7.483.41-4.67-2.698 3.602-3.98 6.044-4.762 10.388-3.328 4.89 1.613 7.06 4.011 5.74 6.344-.84 1.487-1.414 1.502-4.06.11zm234.572-.538c-1.948-1.281-4.429-2.05-5.512-1.707-1.491.472-1.822.062-1.364-1.688.702-2.687 11.08-6.566 14.587-5.452 1.223.388 4.35.069 6.947-.71 4.078-1.221 5.159-1.129 7.916.678l3.192 2.092-2.844 2.216c-2.4 1.87-6.852 3.494-17.607 6.419-.974.265-3.366-.567-5.315-1.848zM-4.71 379.534c-1.625-.256-5.58-1.645-8.792-3.087l-5.838-2.62 8.2-.59c4.51-.325 8.201-1.123 8.201-1.772 0-.65-3.189-1.466-7.086-1.814-5.146-.46-6.117-.784-3.544-1.181 4.308-.667 4.619-2.533.59-3.55-2.9-.732-2.879-.777 1.202-2.535 7.07-3.047 14.602-3.63 21.275-1.649 5.479 1.627 6.335 1.62 8.918-.072 1.826-1.197 2.91-1.397 3.005-.555.08.724.214 1.937.295 2.695.274 2.558 2.63 2.227 5.441-.765 2.602-2.77 7.113-4.097 7.103-2.09-.002.487-1.053 2.606-2.335 4.708l-2.33 3.823 3.811 1.988 3.811 1.988-6.257 2.856c-5.647 2.578-6.806 2.725-11.867 1.511-4.908-1.177-6.316-1.043-11.261 1.077-5.586 2.394-6.764 2.548-12.543 1.634zm47.368-.832c-1.067-1.285-.627-1.918 2.13-3.06 1.92-.794 4.672-1.06 6.147-.591 2.558.812 2.499.94-1.39 3.01-4.96 2.642-5.208 2.665-6.887.641zm325.85-5.466c2.29-1.48 3.543-1.48 3.543 0 0 .65-1.196 1.173-2.657 1.163-2.15-.014-2.319-.237-.886-1.163zm216.727-3.276c-6.039-2.385-5.915-2.255-4.158-4.372.822-.99 1.03-1.817.464-1.838-.567-.02.032-.84 1.331-1.822 1.3-.982 2.372-2.16 2.382-2.62.042-1.747 4.85-6.354 8.248-7.902 1.949-.888 6.998-1.889 11.22-2.224 4.223-.335 9.878-.95 12.568-1.364 2.863-.443 5.197-.262 5.627.436.838 1.354-.76 1.93-9.927 3.577-9.097 1.634-14.564 4.181-18.165 8.46-3.794 4.51-3.921 7.356-.437 9.787l2.657 1.853-3.543-.052c-1.949-.03-5.669-.893-8.267-1.92zm-618.581-3.425c-1.905-1.905-1.47-2.32 7.668-7.322 10.707-5.862 16.088-6.64 25.692-3.716l5.314 1.619-7.086 1.405c-5.796 1.149-18.077 5.256-27.776 9.288-.99.411-2.698-.16-3.812-1.274zm85.327-1.528c0-.63-1.462-1.983-3.248-3.008l-3.248-1.864 4.349.684c3.09.486 4.628.196 5.315-1 .816-1.423 8.333-4.27 11.33-4.292.504-.004.093 1.586-.914 3.532-2.37 4.585-13.584 9.494-13.584 5.948zm18.388-3.449c-1.692-2.738 9.865-6.976 14.774-5.418 3.578 1.136 1.187 3.087-5.054 4.124-2.793.465-5.954 1.218-7.025 1.674-1.07.456-2.284.285-2.695-.38zm37.713-8.697c-7.795-.62-14.319-1.262-14.496-1.427-1.056-.98 1.578-4.17 4.412-5.344 2.788-1.155 4.072-1.001 7.888.94 3.719 1.894 6.116 2.208 13.026 1.71 4.657-.335 9.972-.23 11.81.236l3.343.846-4.133 2.21c-2.274 1.214-4.931 2.151-5.906 2.082-.974-.07-8.15-.633-15.944-1.253zm339.886-4.827c-5.802-2.97-6.362-4.317-1.805-4.343 1.787-.01 4.046-.591 5.02-1.292 1.532-1.102 1.511-1.192-.151-.665-1.058.336-2.542-.009-3.297-.764-1.045-1.045-1.59-1.027-2.272.077-.631 1.022-1.928 1.143-4.38.408-6.228-1.865-7.616-2.693-7.616-4.542 0-1.566 1.561-1.71 11.22-1.031 7.356.517 11.22.374 11.22-.416 0-2.325 3.277-1.177 4.146 1.452l.878 2.658.523-2.658c.288-1.461 1.283-2.657 2.212-2.657.93 0 1.69-.638 1.69-1.417 0-1.103.315-1.103 1.417 0 .825.824 4.777 1.417 9.449 1.417 8.444 0 10.427 1.51 4.795 3.65-2.926 1.113-8.016.799-13.594-.84-1.137-.334-2.064-.173-2.06.358.008 1.09 6.645 5.1 8.44 5.1.644 0 1.916.745 2.827 1.656 1.422 1.422 1.41 1.752-.084 2.325-.958.368-1.742.095-1.742-.607 0-.825-1.502-.994-4.25-.478-2.975.558-4.007.405-3.441-.51.445-.72.166-2.083-.619-3.029-1.514-1.825-5.862-2.383-5.862-.753 0 .531-1.728 2.876-3.839 5.21l-3.838 4.244-4.987-2.553zm-313.312-2.598c-2.048-1.202-4.944-1.55-9.449-1.136-4.21.387-7.447.053-9.2-.95-2.417-1.381-1.826-1.539 5.55-1.479 9.224.075 13.275-1.9 8.28-4.036-2.374-1.014-2.028-1.106 2.04-.543 5.31.736 7.375-.687 4.481-3.088-3.085-2.56.308-3.356 11.285-2.644 6.794.44 11.062.193 12.807-.741 3.343-1.79 2.032-4.066-1.79-3.107-2.64.662-20.967-.425-20.193-1.199.553-.553 26.517-2.957 43.566-4.035 8.843-.559 18.675-1.338 21.85-1.732l5.77-.716-9.527 4.576c-8.932 4.29-23.458 8.474-29.426 8.474-1.453 0-5.63 1.594-9.282 3.543-3.651 1.949-7.372 3.543-8.267 3.543-.895 0-4.758 1.588-8.585 3.529-3.827 1.94-6.958 3.516-6.958 3.5 0-.014-1.328-.806-2.952-1.76zm-23.031-10.79c-5.724-1.267-5.934-1.744-1.728-3.924 6.132-3.178 11.934-3.992 14.572-2.045 2.088 1.541 1.967 1.78-2.135 4.2-4.275 2.522-6.01 2.808-10.71 1.768z" style="fill:#fffff0" transform="translate(137.176 -80.458) scale(0.40)"/></svg>